<svg xmlns:dc="http://purl.org/dc/elements/1.1/" xmlns:cc="http://creativecommons.org/ns#" xmlns:rdf="http://www.w3.org/1999/02/22-rdf-syntax-ns#" xmlns:svg="http://www.w3.org/2000/svg" xmlns="http://www.w3.org/2000/svg" xmlns:sodipodi="http://sodipodi.sourceforge.net/DTD/sodipodi-0.dtd" xmlns:inkscape="http://www.inkscape.org/namespaces/inkscape" version="1.1" id="svg2" xml:space="preserve" width="2666.6667" height="2666.6667" viewBox="0 0 2666.6667 2666.6667" sodipodi:docname="final.eps">
  <metadata id="metadata8"><rdf:RDF><cc:Work rdf:about=""><dc:format>image/svg+xml</dc:format>
  <dc:type rdf:resource="http://purl.org/dc/dcmitype/StillImage"/></cc:Work>
</rdf:RDF></metadata><defs id="defs6">
<clipPath clipPathUnits="userSpaceOnUse" id="clipPath56">
  <path d="m 8746.03,12144.2 c -203.73,0 -368.88,-165.2 -368.88,-368.9 v -512.6 h 1016.14 v 881.5 z" id="path54"/></clipPath><linearGradient x1="0" y1="0" x2="1" y2="0" gradientUnits="userSpaceOnUse" gradientTransform="matrix(1016.14,0,0,-1016.14,8649.14,11703.4)" spreadMethod="pad" id="linearGradient62"><stop style="stop-opacity:1;stop-color:#100f0d" offset="0" id="stop58"/><stop style="stop-opacity:1;stop-color:#ffffff" offset="1" id="stop60"/>
</linearGradient><clipPath clipPathUnits="userSpaceOnUse" id="clipPath72">
<path d="m 9792.65,8655.2 h 377.05 c 154.3,0 279.4,125.1 279.4,279.3 v 863.8 l -925.18,-940 c 33.2,-117.2 140.9,-203.1 268.73,-203.1 z" id="path70"/></clipPath><linearGradient x1="0" y1="0" x2="1" y2="0" gradientUnits="userSpaceOnUse" gradientTransform="matrix(502.124,-491.287,-491.287,-502.124,9786.54,9498.1)" spreadMethod="pad" id="linearGradient78"><stop style="stop-opacity:1;stop-color:#ffffff" offset="0" id="stop74"/><stop style="stop-opacity:1;stop-color:#100f0d" offset="1" id="stop76"/></linearGradient></defs>
<sodipodi:namedview pagecolor="#ffffff" bordercolor="#666666" borderopacity="1" objecttolerance="10" gridtolerance="10" guidetolerance="10" inkscape:pageopacity="0" inkscape:pageshadow="2" inkscape:window-width="640" inkscape:window-height="480" id="namedview4"/><g id="g10" inkscape:groupmode="layer" inkscape:label="ink_ext_XXXXXX" transform="matrix(1.3333333,0,0,-1.3333333,0,2666.6667)"><g id="g12" transform="scale(0.1)">
<path d="M 20000,0 H 0 V 20000 H 20000 V 0" style="fill:#e9d2ec;fill-opacity:1;fill-rule:nonzero;stroke:none" id="path14"/>
<path d="m 5323.27,8061.4 h -174.95 v 45.5 h 402.54 v -45.5 H 5375.9 v -452.3 h -52.63 v 452.3" style="fill:#100f0d;fill-opacity:1;fill-rule:nonzero;stroke:none" id="path16"/>
<path d="m 6267.07,7858 c 0,118.8 -88.9,206.3 -208.38,206.3 -120.2,0 -209.81,-87.5 -209.81,-206.3 0,-118.8 89.61,-206.2 209.81,-206.2 119.48,0 208.38,87.4 208.38,206.2 z m -470.11,0 c 0,145.1 110.95,253.2 261.73,253.2 149.35,0 261.01,-107.4 261.01,-253.2 0,-145.8 -111.66,-253.2 -261.01,-253.2 -150.78,0 -261.73,108.1 -261.73,253.2" style="fill:#100f0d;fill-opacity:1;fill-rule:nonzero;stroke:none" id="path18"/>
<path d="m 6740.77,8061.4 h -174.96 v 45.5 h 402.54 v -45.5 H 6793.4 v -452.3 h -52.63 v 452.3" style="fill:#100f0d;fill-opacity:1;fill-rule:nonzero;stroke:none" id="path20"/>
<path d="m 7533.79,7784.8 -119.48,267.4 -119.49,-267.4 z m 19.2,-42.7 h -277.37 l -59.74,-133 h -54.77 l 227.59,497.8 h 51.92 l 227.59,-497.8 h -55.48 l -59.74,133" style="fill:#100f0d;fill-opacity:1;fill-rule:nonzero;stroke:none" id="path22"/>
<path d="m 7964.1,8106.9 h 52.63 v -452.3 h 278.8 v -45.5 H 7964.1 v 497.8" style="fill:#100f0d;fill-opacity:1;fill-rule:nonzero;stroke:none" id="path24"/>
<path d="m 8596.38,8106.9 h 52.63 v -452.3 h 278.8 v -45.5 h -331.43 v 497.8" style="fill:#100f0d;fill-opacity:1;fill-rule:nonzero;stroke:none" id="path26"/>
<path d="m 9346.73,7781.2 v -172.1 h -51.92 v 172.1 l -199.13,325.7 h 56.19 l 170.68,-279.5 170.69,279.5 h 52.63 l -199.14,-325.7" style="fill:#100f0d;fill-opacity:1;fill-rule:nonzero;stroke:none" id="path28"/>
<path d="m 10196.7,7858 c 0,144.4 110.2,251.8 256.7,251.8 67.6,0 129.5,-22.1 172.8,-66.2 l -14.9,-15.6 c -44.1,42.7 -98.2,59.7 -157.2,59.7 -133,0 -233.3,-99.5 -233.3,-229.7 0,-130.1 100.3,-229.7 233.3,-229.7 59,0 113.1,17.8 157.2,60.4 l 14.9,-15.6 c -43.3,-44.8 -105.2,-66.9 -172.8,-66.9 -146.5,0 -256.7,107.4 -256.7,251.8" style="fill:#100f0d;fill-opacity:1;fill-rule:nonzero;stroke:none" id="path30"/>
<path d="m 10967.6,8106.9 h 24.2 v -475.8 h 291.6 v -22 h -315.8 v 497.8" style="fill:#100f0d;fill-opacity:1;fill-rule:nonzero;stroke:none" id="path32"/>
<path d="m 11931.3,7631.1 v -22 h -336.4 v 497.8 h 326.5 v -22 h -302.3 v -212 h 270.3 v -22 h -270.3 v -219.8 h 312.2" style="fill:#100f0d;fill-opacity:1;fill-rule:nonzero;stroke:none" id="path34"/>
<path d="m 12579.3,7775.5 -139.4,303.7 -140.1,-303.7 z m 9.2,-20.6 h -298 l -66.8,-145.8 h -26.3 l 230.4,497.8 h 23.5 l 230.4,-497.8 h -26.3 l -66.9,145.8" style="fill:#100f0d;fill-opacity:1;fill-rule:nonzero;stroke:none" id="path36"/>
<path d="m 13389.4,8106.9 v -497.8 h -19.9 l -353.5,453.7 v -453.7 h -24.2 v 497.8 h 19.9 l 353.5,-453.7 v 453.7 h 24.2" style="fill:#100f0d;fill-opacity:1;fill-rule:nonzero;stroke:none" id="path38"/>
<path d="m 14121.2,7631.1 v -22 h -336.4 v 497.8 h 326.5 v -22 H 13809 v -212 h 270.3 v -22 H 13809 v -219.8 h 312.2" style="fill:#100f0d;fill-opacity:1;fill-rule:nonzero;stroke:none" id="path40"/>
<path d="m 14647.6,7798.3 c 111.6,0 172.8,51.9 172.8,143.6 0,91.1 -61.2,143 -172.8,143 h -150.1 v -286.6 z m 175.6,-189.2 -123,171.4 c -16.4,-2.9 -34.9,-4.3 -54.1,-4.3 h -148.6 v -167.1 h -24.2 v 497.8 h 172.8 c 123.8,0 197.8,-61.1 197.8,-165 0,-80.3 -43.4,-135.1 -119.5,-155.7 l 127.3,-177.1 h -28.5" style="fill:#100f0d;fill-opacity:1;fill-rule:nonzero;stroke:none" id="path42"/>
<path d="m 11320.7,11630.3 c -125.3,338.1 -44.4,257.2 -382.5,382.4 338.1,125.3 257.2,44.4 382.5,382.5 125.2,-338.1 44.3,-257.2 382.4,-382.5 -338.1,-125.2 -257.2,-44.3 -382.4,-382.4" style="fill:#100f0d;fill-opacity:1;fill-rule:nonzero;stroke:none" id="path44"/>
<path d="m 11574.1,11131.7 -6.4,21.8 h -165.8 l 12.3,-39.3 c 45.3,-145.3 68.3,-296.8 68.3,-450.2 0,-604.7 -359.5,-1150.5 -916,-1390.6 l -18.3,-7.9 V 9095 l 41.7,16.7 c 306.4,123 567.8,332.3 756.1,605.2 192.9,279.6 294.8,607 294.8,947.1 0,158.7 -22.5,316.1 -66.7,467.7" style="fill:#100f0d;fill-opacity:1;fill-rule:nonzero;stroke:none" id="path46"/>
<path d="m 8455.12,10664 c 0,153.4 23,304.9 68.36,450.2 l 12.28,39.3 H 8369.9 l -6.36,-21.8 c -44.25,-151.6 -66.68,-309 -66.68,-467.7 0,-341 102.42,-669.2 296.2,-949.2 189.26,-273.5 451.91,-482.7 759.54,-605.1 l 41.52,-16.5 v 170.3 l -18.39,7.8 c -559.25,239.1 -920.61,785.8 -920.61,1392.7" style="fill:#100f0d;fill-opacity:1;fill-rule:nonzero;stroke:none" id="path48"/><g id="g50"><g id="g52" clip-path="url(#clipPath56)">
<path d="m 8746.03,12144.2 c -203.73,0 -368.88,-165.2 -368.88,-368.9 v -512.6 h 1016.14 v 881.5 h -647.26" style="fill:url(#linearGradient62);fill-opacity:1;fill-rule:nonzero;stroke:none" id="path64"/></g></g>
<g id="g66"><g id="g68" clip-path="url(#clipPath72)">
<path d="m 9792.65,8655.2 h 377.05 c 154.3,0 279.4,125.1 279.4,279.3 v 863.8 l -925.18,-940 c 33.2,-117.2 140.9,-203.1 268.73,-203.1" style="fill:url(#linearGradient78);fill-opacity:1;fill-rule:nonzero;stroke:none" id="path80"/></g></g>
<path d="m 11450.5,11262.7 v 512.7 c 0,24 -2.4,47.5 -6.8,70.2 -11.1,-21.7 -22,-53.5 -38.2,-101 -11.7,-34.2 -26.3,-76.7 -45.6,-128.9 l -39.2,-105.9 -39.3,105.9 c -19.3,52.2 -33.8,94.7 -45.5,128.9 -24.6,71.8 -36.9,107.8 -56.2,127.1 -19.3,19.4 -55.4,31.7 -127.2,56.2 -34.1,11.7 -76.7,26.3 -128.8,45.6 l -106,39.2 106,39.3 c 52.1,19.3 94.7,33.8 128.8,45.5 49,16.8 81.3,27.8 103,39.3 -23.8,4.8 -48.5,7.4 -73.8,7.4 H 9503.29 v -881.5 -2287 c 0,-26.5 3.75,-52 10.63,-76.3 l 925.18,940.1 v 1423.2 h 1011.4" style="fill:#100f0d;fill-opacity:1;fill-rule:nonzero;stroke:none" id="path82"/></g></g></svg>
